<svg width="242" height="242" viewBox="0 0 242 242" fill="none" xmlns="http://www.w3.org/2000/svg">
<g opacity="0.16802">
<path d="M120.712 0.660156C187.142 0.660156 241.078 54.5961 241.078 121.026C241.078 187.456 187.142 241.392 120.712 241.392C54.2821 241.392 0.346191 187.456 0.346191 121.026C0.346191 54.5961 54.2821 0.660156 120.712 0.660156Z" fill="#8894B6"/>
</g>
<path d="M120.223 48.7188C159.86 48.7188 192.042 80.9006 192.042 120.537C192.042 160.174 159.86 192.356 120.223 192.356C80.5866 192.356 48.4048 160.174 48.4048 120.537C48.4048 80.9006 80.5866 48.7188 120.223 48.7188Z" fill="#D9DFED"/>
<g opacity="0.3">
<path d="M120.597 11.9453C180.736 11.9453 229.564 60.7732 229.564 120.912C229.564 181.05 180.736 229.878 120.597 229.878C60.4587 229.878 11.6309 181.05 11.6309 120.912C11.6309 60.7732 60.4587 11.9453 120.597 11.9453Z" fill="#B9C2DB"/>
</g>
<g opacity="0.5">
<path d="M120.408 30.5586C170.169 30.5586 210.572 70.961 210.572 120.722C210.572 170.484 170.169 210.886 120.408 210.886C70.6466 210.886 30.2441 170.484 30.2441 120.722C30.2441 70.961 70.6466 30.5586 120.408 30.5586Z" fill="#8894B6"/>
</g>
<path d="M120.223 48.7188C159.86 48.7188 192.042 80.9006 192.042 120.537C192.042 160.174 159.86 192.356 120.223 192.356C80.5866 192.356 48.4048 160.174 48.4048 120.537C48.4048 80.9006 80.5866 48.7188 120.223 48.7188Z" fill="#444E72"/>
</svg>
