<svg width="23" height="24" viewBox="0 0 23 24" fill="none" xmlns="http://www.w3.org/2000/svg">
<g id="Group 275">
<path id="Ellipse 129" d="M22.6711 11.9965C22.6711 18.2293 17.7927 23.282 11.775 23.282C5.75725 23.282 0.878906 18.2293 0.878906 11.9965C0.878906 5.76364 5.75725 0.710938 11.775 0.710938C17.7927 0.710938 22.6711 5.76364 22.6711 11.9965Z" fill="white"/>
<g id="Group 274">
<path id="Vector 100 (Stroke)" fill-rule="evenodd" clip-rule="evenodd" d="M11.7749 3.5C12.589 3.5 13.2489 4.18356 13.2489 5.02677V14.5118C13.2489 15.3551 12.589 16.0386 11.7749 16.0386C10.9607 16.0386 10.3008 15.3551 10.3008 14.5118V5.02677C10.3008 4.18356 10.9607 3.5 11.7749 3.5Z" fill="#FFC700"/>
<path id="Ellipse 133" d="M13.2929 18.9176C13.2929 19.7868 12.6126 20.4914 11.7734 20.4914C10.9342 20.4914 10.2539 19.7868 10.2539 18.9176C10.2539 18.0484 10.9342 17.3438 11.7734 17.3438C12.6126 17.3438 13.2929 18.0484 13.2929 18.9176Z" fill="#FFC700"/>
</g>
</g>
</svg>
