<svg width="20" height="21" viewBox="0 0 20 21" fill="none" xmlns="http://www.w3.org/2000/svg">
<path fill-rule="evenodd" clip-rule="evenodd" d="M0.666992 4.77365C0.666992 3.45431 1.73653 2.38477 3.05588 2.38477H6.66699C8.00729 2.38477 9.20546 2.99326 10.0003 3.94905C10.7952 2.99326 11.9934 2.38477 13.3337 2.38477H16.9448C18.2641 2.38477 19.3337 3.45431 19.3337 4.77365V14.4959C19.3337 15.8152 18.2641 16.8848 16.9448 16.8848H12.5003C11.6719 16.8848 11.0003 17.5563 11.0003 18.3848C11.0003 18.9025 10.6068 19.3284 10.1026 19.3796C10.069 19.383 10.0348 19.3848 10.0003 19.3848C9.44804 19.3848 9.00033 18.937 9.00033 18.3848C9.00033 17.5563 8.32875 16.8848 7.50032 16.8848H3.05588C1.73653 16.8848 0.666992 15.8152 0.666992 14.4959V4.77365ZM11.0003 15.2216C11.455 15.0056 11.9635 14.8848 12.5003 14.8848H16.9448C17.1596 14.8848 17.3337 14.7107 17.3337 14.4959V4.77365C17.3337 4.55888 17.1595 4.38477 16.9448 4.38477H13.3337C12.045 4.38477 11.0003 5.42943 11.0003 6.7181V15.2216ZM9.00033 6.7181C9.00033 5.42943 7.95566 4.38477 6.66699 4.38477H3.05588C2.8411 4.38477 2.66699 4.55888 2.66699 4.77365V14.4959C2.66699 14.7107 2.8411 14.8848 3.05588 14.8848H7.50032C8.03712 14.8848 8.5457 15.0056 9.00033 15.2216V6.7181Z" fill="white"/>
</svg>
