<svg width="20" height="12" viewBox="0 0 20 12" fill="none" xmlns="http://www.w3.org/2000/svg">
<path fill-rule="evenodd" clip-rule="evenodd" d="M14.7071 0.792893C15.0976 1.18342 15.0976 1.81658 14.7071 2.20711L6.41421 10.5C5.63316 11.2811 4.36683 11.281 3.58579 10.5L0.292893 7.20711C-0.0976311 6.81658 -0.0976311 6.18342 0.292893 5.79289C0.683418 5.40237 1.31658 5.40237 1.70711 5.79289L5 9.08579L13.2929 0.792893C13.6834 0.402369 14.3166 0.402369 14.7071 0.792893ZM19.7071 0.792893C20.0976 1.18342 20.0976 1.81658 19.7071 2.20711L10.7071 11.2071C10.3166 11.5976 9.68342 11.5976 9.29289 11.2071C8.90237 10.8166 8.90237 10.1834 9.29289 9.79289L18.2929 0.792893C18.6834 0.402369 19.3166 0.402369 19.7071 0.792893Z" fill="white"/>
<path fill-rule="evenodd" clip-rule="evenodd" d="M14.7071 0.792893C15.0976 1.18342 15.0976 1.81658 14.7071 2.20711L6.41421 10.5C5.63316 11.2811 4.36683 11.281 3.58579 10.5L0.292893 7.20711C-0.0976311 6.81658 -0.0976311 6.18342 0.292893 5.79289C0.683418 5.40237 1.31658 5.40237 1.70711 5.79289L5 9.08579L13.2929 0.792893C13.6834 0.402369 14.3166 0.402369 14.7071 0.792893ZM19.7071 0.792893C20.0976 1.18342 20.0976 1.81658 19.7071 2.20711L10.7071 11.2071C10.3166 11.5976 9.68342 11.5976 9.29289 11.2071C8.90237 10.8166 8.90237 10.1834 9.29289 9.79289L18.2929 0.792893C18.6834 0.402369 19.3166 0.402369 19.7071 0.792893Z" fill="#999999"/>
</svg>
