<svg width="62" height="62" viewBox="0 0 62 62" fill="none" xmlns="http://www.w3.org/2000/svg">
<path fill-rule="evenodd" clip-rule="evenodd" d="M12.2715 29.0625C13.3415 29.0625 14.209 29.9299 14.209 31C14.209 32.7358 14.6073 34.4638 15.3925 36.0886C16.1783 37.7147 17.3403 39.2132 18.8289 40.4891C20.318 41.7655 22.1012 42.7907 24.0829 43.4943C26.0645 44.1979 28.1965 44.5625 30.3548 44.5625C32.5132 44.5625 34.6451 44.1979 36.6268 43.4943C38.6084 42.7907 40.3917 41.7655 41.8808 40.4891C43.3694 39.2132 44.5313 37.7147 45.3172 36.0886C46.1023 34.4638 46.5007 32.7358 46.5007 31C46.5007 29.9299 47.3681 29.0625 48.4382 29.0625C49.5082 29.0625 50.3757 29.9299 50.3757 31C50.3757 33.3352 49.8385 35.6383 48.8061 37.7746C47.7744 39.9096 46.2724 41.8285 44.4026 43.4312C42.5333 45.0335 40.3295 46.2916 37.9233 47.146C35.517 48.0003 32.9459 48.4375 30.3548 48.4375C27.7637 48.4375 25.1927 48.0003 22.7864 47.146C20.3801 46.2916 18.1763 45.0335 16.3071 43.4312L17.568 41.9602L16.3071 43.4312C14.4373 41.8285 12.9352 39.9096 11.9035 37.7746C10.8711 35.6383 10.334 33.3352 10.334 31C10.334 29.9299 11.2014 29.0625 12.2715 29.0625Z" fill="white"/>
<path fill-rule="evenodd" clip-rule="evenodd" d="M28.418 55.5417V46.5H32.293V55.5417C32.293 56.6117 31.4255 57.4792 30.3555 57.4792C29.2854 57.4792 28.418 56.6117 28.418 55.5417Z" fill="white"/>
<path fill-rule="evenodd" clip-rule="evenodd" d="M36.8132 28.4141V15.4974C36.8132 11.9306 33.9217 9.03906 30.3548 9.03906C26.788 9.03906 23.8965 11.9306 23.8965 15.4974V28.4141C23.8965 31.9809 26.788 34.8724 30.3548 34.8724C33.9217 34.8724 36.8132 31.9809 36.8132 28.4141ZM30.3548 5.16406C24.6479 5.16406 20.0215 9.79045 20.0215 15.4974V28.4141C20.0215 34.121 24.6479 38.7474 30.3548 38.7474C36.0618 38.7474 40.6882 34.121 40.6882 28.4141V15.4974C40.6882 9.79045 36.0618 5.16406 30.3548 5.16406Z" fill="white"/>
</svg>
