<svg width="25" height="24" viewBox="0 0 25 24" fill="none" xmlns="http://www.w3.org/2000/svg">
<g clip-path="url(#clip0_214_3578)">
<path fill-rule="evenodd" clip-rule="evenodd" d="M14.0689 2.42739C13.7179 2.15039 13.2858 2 12.841 2C12.3962 2 11.9641 2.15039 11.613 2.42739L3.22916 9.04018C2.47718 9.63553 2.89117 10.8577 3.84415 10.8577H4.93613L5.74673 20.0944C5.79608 20.5949 6.02703 21.059 6.39475 21.3965C6.76247 21.7341 7.24073 21.921 7.73669 21.921H17.9265C18.4224 21.921 18.9007 21.7341 19.2684 21.3965C19.6361 21.059 19.8671 20.5949 19.9164 20.0944L20.7458 10.8577H21.8378C22.7898 10.8577 23.2058 9.63553 22.4528 9.04119L14.0689 2.42739ZM12.9563 17.0175C13.752 17.0175 14.515 16.6969 15.0776 16.1263C15.6402 15.5557 15.9563 14.7817 15.9563 13.9748C15.9563 13.1678 15.6402 12.3939 15.0776 11.8233C14.515 11.2526 13.752 10.9321 12.9563 10.9321C12.1607 10.9321 11.3977 11.2526 10.8351 11.8233C10.2725 12.3939 9.95639 13.1678 9.95639 13.9748C9.95639 14.7817 10.2725 15.5557 10.8351 16.1263C11.3977 16.6969 12.1607 17.0175 12.9563 17.0175Z" fill="#626262"/>
</g>
<defs>
<clipPath id="clip0_214_3578">
<rect width="24" height="24" fill="white" transform="translate(0.841187)"/>
</clipPath>
</defs>
</svg>
