<svg width="25" height="24" viewBox="0 0 25 24" fill="none" xmlns="http://www.w3.org/2000/svg">
<g clip-path="url(#clip0_3676_32426)">
<path fill-rule="evenodd" clip-rule="evenodd" d="M13.9714 4.05956C13.073 3.49056 11.927 3.49056 11.0286 4.05956L5.52861 7.54289C4.7325 8.04709 4.25 8.92381 4.25 9.86615V17.7399C4.25 19.2587 5.48122 20.4899 7 20.4899H18C19.5188 20.4899 20.75 19.2587 20.75 17.7399V9.86615C20.75 8.92381 20.2675 8.04709 19.4714 7.54289L13.9714 4.05956ZM10.226 2.79233C11.6145 1.91297 13.3855 1.91297 14.774 2.79233L20.274 6.27567C21.5043 7.05488 22.25 8.40981 22.25 9.86615V17.7399C22.25 20.0871 20.3472 21.9899 18 21.9899H7C4.65279 21.9899 2.75 20.0871 2.75 17.7399V9.86615C2.75 8.40981 3.49569 7.05488 4.72603 6.27566L10.226 2.79233Z" fill="white"/>
<path fill-rule="evenodd" clip-rule="evenodd" d="M13.9714 4.05956C13.073 3.49056 11.927 3.49056 11.0286 4.05956L5.52861 7.54289C4.7325 8.04709 4.25 8.92381 4.25 9.86615V17.7399C4.25 19.2587 5.48122 20.4899 7 20.4899H18C19.5188 20.4899 20.75 19.2587 20.75 17.7399V9.86615C20.75 8.92381 20.2675 8.04709 19.4714 7.54289L13.9714 4.05956ZM10.226 2.79233C11.6145 1.91297 13.3855 1.91297 14.774 2.79233L20.274 6.27567C21.5043 7.05488 22.25 8.40981 22.25 9.86615V17.7399C22.25 20.0871 20.3472 21.9899 18 21.9899H7C4.65279 21.9899 2.75 20.0871 2.75 17.7399V9.86615C2.75 8.40981 3.49569 7.05488 4.72603 6.27566L10.226 2.79233Z" fill="#B3B3B3"/>
<path fill-rule="evenodd" clip-rule="evenodd" d="M12.5 15.1484C12.9142 15.1484 13.25 15.4842 13.25 15.8984V21.7188H11.75V15.8984C11.75 15.4842 12.0858 15.1484 12.5 15.1484Z" fill="white"/>
<path fill-rule="evenodd" clip-rule="evenodd" d="M12.5 15.1484C12.9142 15.1484 13.25 15.4842 13.25 15.8984V21.7188H11.75V15.8984C11.75 15.4842 12.0858 15.1484 12.5 15.1484Z" fill="#B3B3B3"/>
</g>
<defs>
<clipPath id="clip0_3676_32426">
<rect width="24" height="24" fill="white" transform="translate(0.5)"/>
</clipPath>
</defs>
</svg>
