<svg width="27" height="28" viewBox="0 0 27 28" fill="none" xmlns="http://www.w3.org/2000/svg">
<path d="M8.81266 11.2077C9.91723 11.2077 10.8127 10.3123 10.8127 9.20768C10.8127 8.10311 9.91723 7.20768 8.81266 7.20768C7.70809 7.20768 6.81266 8.10311 6.81266 9.20768C6.81266 10.3123 7.70809 11.2077 8.81266 11.2077Z" fill="white"/>
<path d="M8.81266 11.2077C9.91723 11.2077 10.8127 10.3123 10.8127 9.20768C10.8127 8.10311 9.91723 7.20768 8.81266 7.20768C7.70809 7.20768 6.81266 8.10311 6.81266 9.20768C6.81266 10.3123 7.70809 11.2077 8.81266 11.2077Z" fill="black" fill-opacity="0.05"/>
<path fill-rule="evenodd" clip-rule="evenodd" d="M12.1533 0.541016H14.8053C16.6533 0.541005 18.1231 0.540996 19.3081 0.639413C20.5218 0.740206 21.556 0.951081 22.5005 1.44171C23.9616 2.20071 25.153 3.39208 25.912 4.85322C26.4026 5.79772 26.6135 6.83183 26.7143 8.04554C26.8127 9.23061 26.8127 10.7003 26.8127 12.5483V15.2003C26.8127 16.1216 26.8127 16.949 26.8005 17.6938C26.8192 17.8313 26.8163 17.9711 26.7922 18.1077C26.7781 18.6909 26.7543 19.2206 26.7143 19.7032C26.6135 20.9169 26.4026 21.951 25.912 22.8955C25.153 24.3566 23.9616 25.548 22.5005 26.307C21.556 26.7976 20.5218 27.0085 19.3081 27.1093C18.1231 27.2077 16.6534 27.2077 14.8054 27.2077H12.1534C10.3054 27.2077 8.8356 27.2077 7.65052 27.1093C6.43681 27.0085 5.4027 26.7976 4.4582 26.307C3.39768 25.7561 2.47927 24.9774 1.76516 24.0331C1.75164 24.016 1.73858 23.9986 1.726 23.9809C1.47207 23.6394 1.24467 23.2766 1.04669 22.8955C0.556061 21.951 0.345186 20.9169 0.244393 19.7032C0.145977 18.5181 0.145985 17.0484 0.145996 15.2004V12.5483C0.145985 10.7003 0.145977 9.23063 0.244393 8.04554C0.345186 6.83183 0.556061 5.79772 1.04669 4.85322C1.80569 3.39208 2.99706 2.20071 4.4582 1.44171C5.4027 0.951081 6.43681 0.740206 7.65052 0.639413C8.83561 0.540996 10.3053 0.541005 12.1533 0.541016ZM24.146 12.6077V14.5568L22.2967 12.6277C21.2431 11.5286 19.4847 11.5333 18.4369 12.6379L12.2143 19.1982L10.1665 16.7222C9.07034 15.3969 7.02476 15.4405 5.9861 16.8114L3.06655 20.6647C2.99509 20.3361 2.94075 19.9501 2.90191 19.4825C2.81374 18.4207 2.81266 17.0617 2.81266 15.141V12.6077C2.81266 10.687 2.81374 9.32802 2.90191 8.26623C2.98876 7.22041 3.15318 6.58291 3.41313 6.08249C3.91913 5.10839 4.71337 4.31415 5.68747 3.80814C6.18789 3.5482 6.82539 3.38378 7.87122 3.29693C8.933 3.20875 10.292 3.20768 12.2127 3.20768H14.746C16.6667 3.20768 18.0257 3.20875 19.0874 3.29693C20.1333 3.38378 20.7708 3.5482 21.2712 3.80814C22.2453 4.31415 23.0395 5.10839 23.5455 6.08249C23.8055 6.58291 23.9699 7.22041 24.0567 8.26623C24.1449 9.32802 24.146 10.687 24.146 12.6077ZM5.68747 23.9406C5.26863 23.723 4.88305 23.4521 4.53933 23.1366L8.11159 18.4218L10.1594 20.8978C11.1792 22.1308 13.0478 22.1944 14.1491 21.0334L20.3717 14.4731L24.1169 18.3799C24.1037 18.7826 24.0846 19.1473 24.0567 19.4825C23.9699 20.5283 23.8055 21.1658 23.5455 21.6662C23.0395 22.6403 22.2453 23.4345 21.2712 23.9406C20.7708 24.2005 20.1333 24.3649 19.0874 24.4518C18.0257 24.5399 16.6667 24.541 14.746 24.541H12.2127C10.292 24.541 8.933 24.5399 7.87122 24.4518C6.82539 24.3649 6.18789 24.2005 5.68747 23.9406Z" fill="white"/>
<path fill-rule="evenodd" clip-rule="evenodd" d="M12.1533 0.541016H14.8053C16.6533 0.541005 18.1231 0.540996 19.3081 0.639413C20.5218 0.740206 21.556 0.951081 22.5005 1.44171C23.9616 2.20071 25.153 3.39208 25.912 4.85322C26.4026 5.79772 26.6135 6.83183 26.7143 8.04554C26.8127 9.23061 26.8127 10.7003 26.8127 12.5483V15.2003C26.8127 16.1216 26.8127 16.949 26.8005 17.6938C26.8192 17.8313 26.8163 17.9711 26.7922 18.1077C26.7781 18.6909 26.7543 19.2206 26.7143 19.7032C26.6135 20.9169 26.4026 21.951 25.912 22.8955C25.153 24.3566 23.9616 25.548 22.5005 26.307C21.556 26.7976 20.5218 27.0085 19.3081 27.1093C18.1231 27.2077 16.6534 27.2077 14.8054 27.2077H12.1534C10.3054 27.2077 8.8356 27.2077 7.65052 27.1093C6.43681 27.0085 5.4027 26.7976 4.4582 26.307C3.39768 25.7561 2.47927 24.9774 1.76516 24.0331C1.75164 24.016 1.73858 23.9986 1.726 23.9809C1.47207 23.6394 1.24467 23.2766 1.04669 22.8955C0.556061 21.951 0.345186 20.9169 0.244393 19.7032C0.145977 18.5181 0.145985 17.0484 0.145996 15.2004V12.5483C0.145985 10.7003 0.145977 9.23063 0.244393 8.04554C0.345186 6.83183 0.556061 5.79772 1.04669 4.85322C1.80569 3.39208 2.99706 2.20071 4.4582 1.44171C5.4027 0.951081 6.43681 0.740206 7.65052 0.639413C8.83561 0.540996 10.3053 0.541005 12.1533 0.541016ZM24.146 12.6077V14.5568L22.2967 12.6277C21.2431 11.5286 19.4847 11.5333 18.4369 12.6379L12.2143 19.1982L10.1665 16.7222C9.07034 15.3969 7.02476 15.4405 5.9861 16.8114L3.06655 20.6647C2.99509 20.3361 2.94075 19.9501 2.90191 19.4825C2.81374 18.4207 2.81266 17.0617 2.81266 15.141V12.6077C2.81266 10.687 2.81374 9.32802 2.90191 8.26623C2.98876 7.22041 3.15318 6.58291 3.41313 6.08249C3.91913 5.10839 4.71337 4.31415 5.68747 3.80814C6.18789 3.5482 6.82539 3.38378 7.87122 3.29693C8.933 3.20875 10.292 3.20768 12.2127 3.20768H14.746C16.6667 3.20768 18.0257 3.20875 19.0874 3.29693C20.1333 3.38378 20.7708 3.5482 21.2712 3.80814C22.2453 4.31415 23.0395 5.10839 23.5455 6.08249C23.8055 6.58291 23.9699 7.22041 24.0567 8.26623C24.1449 9.32802 24.146 10.687 24.146 12.6077ZM5.68747 23.9406C5.26863 23.723 4.88305 23.4521 4.53933 23.1366L8.11159 18.4218L10.1594 20.8978C11.1792 22.1308 13.0478 22.1944 14.1491 21.0334L20.3717 14.4731L24.1169 18.3799C24.1037 18.7826 24.0846 19.1473 24.0567 19.4825C23.9699 20.5283 23.8055 21.1658 23.5455 21.6662C23.0395 22.6403 22.2453 23.4345 21.2712 23.9406C20.7708 24.2005 20.1333 24.3649 19.0874 24.4518C18.0257 24.5399 16.6667 24.541 14.746 24.541H12.2127C10.292 24.541 8.933 24.5399 7.87122 24.4518C6.82539 24.3649 6.18789 24.2005 5.68747 23.9406Z" fill="black" fill-opacity="0.05"/>
</svg>
