<svg width="23" height="28" viewBox="0 0 23 28" fill="none" xmlns="http://www.w3.org/2000/svg">
<path d="M11.3852 17.3831C13.9433 17.3831 16.0082 15.5024 16.0082 13.1726V4.75154C16.0082 2.42172 13.9433 0.541016 11.3852 0.541016C8.8272 0.541016 6.76227 2.42172 6.76227 4.75154V13.1726C6.76227 15.5024 8.8272 17.3831 11.3852 17.3831ZM20.4925 13.1726C19.7374 13.1726 19.1056 13.6779 18.9823 14.3656C18.3505 17.6638 15.1915 20.1901 11.3852 20.1901C7.57899 20.1901 4.41996 17.6638 3.78815 14.3656C3.73381 14.0354 3.5518 13.7338 3.27492 13.5151C2.99804 13.2964 2.64449 13.1749 2.27798 13.1726C1.33798 13.1726 0.598299 13.9305 0.736988 14.7726C1.49207 18.9831 5.19045 22.2814 9.84425 22.8849V25.8042C9.84425 26.5761 10.5377 27.2077 11.3852 27.2077C12.2328 27.2077 12.9262 26.5761 12.9262 25.8042V22.8849C15.1938 22.5898 17.2992 21.6443 18.9369 20.1856C20.5745 18.7269 21.6592 16.8308 22.0335 14.7726C22.1876 13.9305 21.4325 13.1726 20.4925 13.1726Z" fill="white"/>
<path d="M11.3852 17.3831C13.9433 17.3831 16.0082 15.5024 16.0082 13.1726V4.75154C16.0082 2.42172 13.9433 0.541016 11.3852 0.541016C8.8272 0.541016 6.76227 2.42172 6.76227 4.75154V13.1726C6.76227 15.5024 8.8272 17.3831 11.3852 17.3831ZM20.4925 13.1726C19.7374 13.1726 19.1056 13.6779 18.9823 14.3656C18.3505 17.6638 15.1915 20.1901 11.3852 20.1901C7.57899 20.1901 4.41996 17.6638 3.78815 14.3656C3.73381 14.0354 3.5518 13.7338 3.27492 13.5151C2.99804 13.2964 2.64449 13.1749 2.27798 13.1726C1.33798 13.1726 0.598299 13.9305 0.736988 14.7726C1.49207 18.9831 5.19045 22.2814 9.84425 22.8849V25.8042C9.84425 26.5761 10.5377 27.2077 11.3852 27.2077C12.2328 27.2077 12.9262 26.5761 12.9262 25.8042V22.8849C15.1938 22.5898 17.2992 21.6443 18.9369 20.1856C20.5745 18.7269 21.6592 16.8308 22.0335 14.7726C22.1876 13.9305 21.4325 13.1726 20.4925 13.1726Z" fill="black" fill-opacity="0.05"/>
</svg>
