<svg width="25" height="24" viewBox="0 0 25 24" fill="none" xmlns="http://www.w3.org/2000/svg">
<path fill-rule="evenodd" clip-rule="evenodd" d="M7.33594 3.75C5.81715 3.75 4.58594 4.98122 4.58594 6.5V17.8171C4.58594 19.1608 5.67518 20.25 7.01883 20.25H12.6176C14.8635 20.25 17.0175 19.3578 18.6056 17.7697C20.1937 16.1815 21.0859 14.0276 21.0859 11.7816V6.18289C21.0859 4.83924 19.9967 3.75 18.653 3.75H7.33594ZM3.08594 6.5C3.08594 4.15279 4.98873 2.25 7.33594 2.25H18.653C20.8251 2.25 22.5859 4.01081 22.5859 6.18289V11.7816C22.5859 14.4254 21.5357 16.9609 19.6663 18.8303C17.7968 20.6998 15.2613 21.75 12.6176 21.75H7.01883C4.84675 21.75 3.08594 19.9892 3.08594 17.8171V6.5Z" fill="white"/>
<path fill-rule="evenodd" clip-rule="evenodd" d="M7.33594 3.75C5.81715 3.75 4.58594 4.98122 4.58594 6.5V17.8171C4.58594 19.1608 5.67518 20.25 7.01883 20.25H12.6176C14.8635 20.25 17.0175 19.3578 18.6056 17.7697C20.1937 16.1815 21.0859 14.0276 21.0859 11.7816V6.18289C21.0859 4.83924 19.9967 3.75 18.653 3.75H7.33594ZM3.08594 6.5C3.08594 4.15279 4.98873 2.25 7.33594 2.25H18.653C20.8251 2.25 22.5859 4.01081 22.5859 6.18289V11.7816C22.5859 14.4254 21.5357 16.9609 19.6663 18.8303C17.7968 20.6998 15.2613 21.75 12.6176 21.75H7.01883C4.84675 21.75 3.08594 19.9892 3.08594 17.8171V6.5Z" fill="#B3B3B3"/>
<path fill-rule="evenodd" clip-rule="evenodd" d="M14.7182 13.9577C14.6143 13.8424 14.4315 13.8486 14.3357 13.9707L8.8128 21.0114C8.55715 21.3374 8.08571 21.3943 7.7598 21.1387C7.43389 20.883 7.37693 20.4116 7.63258 20.0857L13.1554 13.0449C13.8261 12.1899 15.1057 12.1465 15.8328 12.954L19.8431 17.4077C20.1203 17.7155 20.0954 18.1897 19.7876 18.4669C19.4798 18.7441 19.0056 18.7192 18.7284 18.4114L14.7182 13.9577Z" fill="white"/>
<path fill-rule="evenodd" clip-rule="evenodd" d="M14.7182 13.9577C14.6143 13.8424 14.4315 13.8486 14.3357 13.9707L8.8128 21.0114C8.55715 21.3374 8.08571 21.3943 7.7598 21.1387C7.43389 20.883 7.37693 20.4116 7.63258 20.0857L13.1554 13.0449C13.8261 12.1899 15.1057 12.1465 15.8328 12.954L19.8431 17.4077C20.1203 17.7155 20.0954 18.1897 19.7876 18.4669C19.4798 18.7441 19.0056 18.7192 18.7284 18.4114L14.7182 13.9577Z" fill="#B3B3B3"/>
<path fill-rule="evenodd" clip-rule="evenodd" d="M9.5625 9.33594C9.97671 9.33594 10.3125 9.67172 10.3125 10.0859L10.3125 12.0859C10.3125 12.5002 9.97671 12.8359 9.5625 12.8359C9.14829 12.8359 8.8125 12.5002 8.8125 12.0859L8.8125 10.0859C8.8125 9.67172 9.14829 9.33594 9.5625 9.33594Z" fill="white"/>
<path fill-rule="evenodd" clip-rule="evenodd" d="M9.5625 9.33594C9.97671 9.33594 10.3125 9.67172 10.3125 10.0859L10.3125 12.0859C10.3125 12.5002 9.97671 12.8359 9.5625 12.8359C9.14829 12.8359 8.8125 12.5002 8.8125 12.0859L8.8125 10.0859C8.8125 9.67172 9.14829 9.33594 9.5625 9.33594Z" fill="#B3B3B3"/>
</svg>
