<svg width="24" height="24" viewBox="0 0 24 24" fill="none" xmlns="http://www.w3.org/2000/svg">
<path fill-rule="evenodd" clip-rule="evenodd" d="M10.0841 5.29867C9.6534 4.18646 8.05808 4.25185 7.71982 5.39559L3.4694 19.7672C3.35193 20.1644 2.9347 20.3912 2.53749 20.2737C2.14028 20.1562 1.91352 19.739 2.03099 19.3418L6.2814 4.97018C7.02558 2.45396 10.5353 2.31008 11.4829 4.75697L15.157 14.2441C15.5761 15.3262 17.1154 15.3029 17.5015 14.2085L18.7837 10.8363C18.9215 10.4457 19.3499 10.2407 19.7405 10.3785C20.1311 10.5163 20.3361 10.9447 20.1983 11.3353L18.916 14.7075C18.0667 17.1152 14.6803 17.1666 13.7583 14.7858L10.0841 5.29867Z" fill="white"/>
<path fill-rule="evenodd" clip-rule="evenodd" d="M10.0841 5.29867C9.6534 4.18646 8.05808 4.25185 7.71982 5.39559L3.4694 19.7672C3.35193 20.1644 2.9347 20.3912 2.53749 20.2737C2.14028 20.1562 1.91352 19.739 2.03099 19.3418L6.2814 4.97018C7.02558 2.45396 10.5353 2.31008 11.4829 4.75697L15.157 14.2441C15.5761 15.3262 17.1154 15.3029 17.5015 14.2085L18.7837 10.8363C18.9215 10.4457 19.3499 10.2407 19.7405 10.3785C20.1311 10.5163 20.3361 10.9447 20.1983 11.3353L18.916 14.7075C18.0667 17.1152 14.6803 17.1666 13.7583 14.7858L10.0841 5.29867Z" fill="#B3B3B3"/>
<path fill-rule="evenodd" clip-rule="evenodd" d="M21.3326 5.93134C21.7212 6.07464 21.9201 6.50586 21.7768 6.8945L20.8072 9.62888C20.6639 10.0175 20.2326 10.2164 19.844 10.0731C19.4554 9.92981 19.2565 9.49859 19.3998 9.10995L20.3694 6.37556C20.5127 5.98693 20.944 5.78804 21.3326 5.93134Z" fill="white"/>
<path fill-rule="evenodd" clip-rule="evenodd" d="M21.3326 5.93134C21.7212 6.07464 21.9201 6.50586 21.7768 6.8945L20.8072 9.62888C20.6639 10.0175 20.2326 10.2164 19.844 10.0731C19.4554 9.92981 19.2565 9.49859 19.3998 9.10995L20.3694 6.37556C20.5127 5.98693 20.944 5.78804 21.3326 5.93134Z" fill="#B3B3B3"/>
</svg>
