<svg width="25" height="24" viewBox="0 0 25 24" fill="none" xmlns="http://www.w3.org/2000/svg">
<g clip-path="url(#clip0_214_3580)">
<path d="M7.84119 3V4C7.84119 4.53043 8.0519 5.03914 8.42697 5.41421C8.80205 5.78929 9.31075 6 9.84119 6H15.8412C16.3716 6 16.8803 5.78929 17.2554 5.41421C17.6305 5.03914 17.8412 4.53043 17.8412 4V3H18.8412C19.3716 3 19.8803 3.21071 20.2554 3.58579C20.6305 3.96086 20.8412 4.46957 20.8412 5V16C20.8412 17.5913 20.209 19.1174 19.0838 20.2426C17.9586 21.3679 16.4325 22 14.8412 22H6.84119C6.31075 22 5.80205 21.7893 5.42697 21.4142C5.0519 21.0391 4.84119 20.5304 4.84119 20V5C4.84119 4.46957 5.0519 3.96086 5.42697 3.58579C5.80205 3.21071 6.31075 3 6.84119 3H7.84119ZM12.8412 14H9.84119C9.57597 14 9.32162 14.1054 9.13408 14.2929C8.94654 14.4804 8.84119 14.7348 8.84119 15C8.84119 15.2652 8.94654 15.5196 9.13408 15.7071C9.32162 15.8946 9.57597 16 9.84119 16H12.8412C13.1064 16 13.3608 15.8946 13.5483 15.7071C13.7358 15.5196 13.8412 15.2652 13.8412 15C13.8412 14.7348 13.7358 14.4804 13.5483 14.2929C13.3608 14.1054 13.1064 14 12.8412 14ZM15.8412 10H9.84119C9.58631 10.0003 9.34115 10.0979 9.15582 10.2728C8.97048 10.4478 8.85895 10.687 8.84401 10.9414C8.82908 11.1958 8.91186 11.4464 9.07545 11.6418C9.23904 11.8373 9.47109 11.9629 9.72419 11.993L9.84119 12H15.8412C16.1064 12 16.3608 11.8946 16.5483 11.7071C16.7358 11.5196 16.8412 11.2652 16.8412 11C16.8412 10.7348 16.7358 10.4804 16.5483 10.2929C16.3608 10.1054 16.1064 10 15.8412 10ZM14.8412 2C15.0961 2.00028 15.3412 2.09788 15.5266 2.27285C15.7119 2.44782 15.8234 2.68695 15.8384 2.94139C15.8533 3.19584 15.7705 3.44638 15.6069 3.64183C15.4433 3.83729 15.2113 3.9629 14.9582 3.993L14.8412 4H10.8412C10.5863 3.99972 10.3412 3.90212 10.1558 3.72715C9.97048 3.55218 9.85895 3.31305 9.84401 3.05861C9.82908 2.80416 9.91186 2.55362 10.0755 2.35817C10.239 2.16271 10.4711 2.0371 10.7242 2.007L10.8412 2H14.8412Z" fill="#626262"/>
</g>
<defs>
<clipPath id="clip0_214_3580">
<rect width="24" height="24" fill="white" transform="translate(0.841187)"/>
</clipPath>
</defs>
</svg>
