<svg width="57" height="57" viewBox="0 0 57 57" fill="none" xmlns="http://www.w3.org/2000/svg">
<path d="M34.7771 17.6905C34.7771 21.0879 32.023 23.842 28.6256 23.842C25.2282 23.842 22.4741 21.0879 22.4741 17.6905C22.4741 14.2932 25.2282 11.5391 28.6256 11.5391C32.023 11.5391 34.7771 14.2932 34.7771 17.6905Z" fill="#77B4FF"/>
<path d="M27.4922 4.57227H29.8341V23.3078H27.4922V4.57227Z" fill="#77B4FF"/>
<path d="M31.5002 3.35192C31.5002 4.99387 30.1692 6.32493 28.5272 6.32493C26.8853 6.32493 25.5542 4.99387 25.5542 3.35192C25.5542 1.70997 26.8853 0.378906 28.5272 0.378906C30.1692 0.378906 31.5002 1.70997 31.5002 3.35192Z" fill="url(#paint0_linear_596_7134)"/>
<path fill-rule="evenodd" clip-rule="evenodd" d="M5.14581 31.4939C7.35912 22.5577 13.8896 16.082 21.6014 16.082H35.4062C43.1201 16.082 49.652 22.5612 51.8636 31.5011C54.3273 31.6384 56.2827 33.6797 56.2827 36.1777V38.2657C56.2827 40.4854 54.7388 42.3444 52.6662 42.8275V43.5132C52.6662 50.5795 48.1924 56.3078 42.6736 56.3078H14.334C8.81521 56.3078 4.34136 50.5795 4.34136 43.5132V42.874C2.15663 42.4772 0.5 40.5649 0.5 38.2657V36.1776C0.5 33.6035 2.5765 31.5144 5.14581 31.4939Z" fill="url(#paint1_linear_596_7134)"/>
<g filter="url(#filter0_i_596_7134)">
<path d="M10.5205 37.2686C10.5205 29.4142 16.2357 23.0469 23.2858 23.0469H33.4958C40.5459 23.0469 46.2611 29.4142 46.2611 37.2686V40.6995C46.2611 45.2468 42.9523 48.9332 38.8706 48.9332H17.911C13.8293 48.9332 10.5205 45.2468 10.5205 40.6995V37.2686Z" fill="#FFFAEC"/>
</g>
<path d="M20.8608 33.5069C20.8608 32.3931 21.7637 31.4902 22.8775 31.4902H22.9973C24.1111 31.4902 25.014 32.3931 25.014 33.5069C25.014 34.6207 24.1111 35.5236 22.9973 35.5236H22.8775C21.7637 35.5236 20.8608 34.6207 20.8608 33.5069Z" fill="#474747"/>
<path d="M31.7686 33.5069C31.7686 32.3931 32.6714 31.4902 33.7852 31.4902H33.905C35.0188 31.4902 35.9217 32.3931 35.9217 33.5069C35.9217 34.6207 35.0188 35.5236 33.905 35.5236H33.7852C32.6714 35.5236 31.7686 34.6207 31.7686 33.5069Z" fill="#474747"/>
<path fill-rule="evenodd" clip-rule="evenodd" d="M33.6685 38.3027C34.1222 38.7008 34.1673 39.3913 33.7692 39.845C31.5522 42.3717 29.2878 43.0026 27.245 42.5312C25.3409 42.0919 23.8779 40.7415 23.0485 39.884C22.6289 39.4501 22.6404 38.7582 23.0743 38.3386C23.5082 37.919 24.2001 37.9305 24.6197 38.3644C25.405 39.1763 26.4912 40.114 27.7364 40.4014C28.8428 40.6567 30.3279 40.4529 32.1262 38.4034C32.5243 37.9497 33.2148 37.9046 33.6685 38.3027Z" fill="#474747"/>
<defs>
<filter id="filter0_i_596_7134" x="10.5205" y="23.0469" width="36.7407" height="26.8867" filterUnits="userSpaceOnUse" color-interpolation-filters="sRGB">
<feFlood flood-opacity="0" result="BackgroundImageFix"/>
<feBlend mode="normal" in="SourceGraphic" in2="BackgroundImageFix" result="shape"/>
<feColorMatrix in="SourceAlpha" type="matrix" values="0 0 0 0 0 0 0 0 0 0 0 0 0 0 0 0 0 0 127 0" result="hardAlpha"/>
<feOffset dx="1" dy="1"/>
<feGaussianBlur stdDeviation="2"/>
<feComposite in2="hardAlpha" operator="arithmetic" k2="-1" k3="1"/>
<feColorMatrix type="matrix" values="0 0 0 0 0 0 0 0 0 0 0 0 0 0 0 0 0 0 0.25 0"/>
<feBlend mode="normal" in2="shape" result="effect1_innerShadow_596_7134"/>
</filter>
<linearGradient id="paint0_linear_596_7134" x1="27.8713" y1="1.695" x2="32.9418" y2="3.38596" gradientUnits="userSpaceOnUse">
<stop stop-color="#77B5FF"/>
<stop offset="0.380639" stop-color="#B5B8FF"/>
<stop offset="0.838542" stop-color="#FEFFE4"/>
</linearGradient>
<linearGradient id="paint1_linear_596_7134" x1="22.2379" y1="24.9856" x2="65.7838" y2="45.124" gradientUnits="userSpaceOnUse">
<stop stop-color="#77B5FF"/>
<stop offset="0.380639" stop-color="#B5B8FF"/>
<stop offset="0.838542" stop-color="#FEFFE4"/>
</linearGradient>
</defs>
</svg>
