<svg width="25" height="24" viewBox="0 0 25 24" fill="none" xmlns="http://www.w3.org/2000/svg">
<path d="M21.8688 20.2894L18.1588 16.6094C19.5989 14.8138 20.2963 12.5347 20.1077 10.2407C19.919 7.94672 18.8585 5.8122 17.1444 4.27606C15.4302 2.73992 13.1926 1.91893 10.8918 1.98189C8.59088 2.04485 6.40156 2.98698 4.77398 4.61456C3.1464 6.24214 2.20427 8.43145 2.14131 10.7323C2.07835 13.0332 2.89935 15.2708 4.43548 16.9849C5.97162 18.6991 8.10614 19.7595 10.4001 19.9482C12.6941 20.1369 14.9732 19.4395 16.7688 17.9994L20.4488 21.6794C20.5418 21.7731 20.6524 21.8475 20.7743 21.8983C20.8961 21.9491 21.0268 21.9752 21.1588 21.9752C21.2909 21.9752 21.4216 21.9491 21.5434 21.8983C21.6653 21.8475 21.7759 21.7731 21.8688 21.6794C22.0491 21.493 22.1498 21.2438 22.1498 20.9844C22.1498 20.7251 22.0491 20.4759 21.8688 20.2894ZM11.1588 17.9994C9.77437 17.9994 8.42099 17.5889 7.26985 16.8197C6.1187 16.0505 5.2215 14.9573 4.69168 13.6782C4.16187 12.3991 4.02325 10.9917 4.29334 9.63378C4.56344 8.27592 5.23012 7.02864 6.20909 6.04967C7.18806 5.0707 8.43534 4.40402 9.79321 4.13392C11.1511 3.86382 12.5585 4.00245 13.8376 4.53226C15.1167 5.06207 16.21 5.95928 16.9791 7.11042C17.7483 8.26157 18.1588 9.61495 18.1588 10.9994C18.1588 12.8559 17.4213 14.6364 16.1086 15.9492C14.7958 17.2619 13.0154 17.9994 11.1588 17.9994Z" fill="#626262"/>
</svg>
