<svg width="25" height="24" viewBox="0 0 25 24" fill="none" xmlns="http://www.w3.org/2000/svg">
<path fill-rule="evenodd" clip-rule="evenodd" d="M10.25 2.25362C10.9756 2.08756 11.7304 2 12.5048 2C13.2775 2 14.0307 2.08717 14.7547 2.2525C15.5695 2.43856 15.9753 3.14761 16.1384 3.67225C16.2827 4.13696 16.5956 4.54955 17.0525 4.81241C17.471 5.05311 17.9383 5.12699 18.3807 5.05514C18.9231 4.96704 19.7344 5.01564 20.2631 5.65723C20.9485 6.48889 21.5023 7.43328 21.892 8.45875C22.2283 9.34346 21.7264 10.1433 21.2912 10.5668C20.9169 10.9311 20.6865 11.4367 20.6865 11.9968C20.6865 12.5574 20.9173 13.0634 21.2922 13.4277C21.7276 13.8509 22.2299 14.6504 21.8943 15.5353C21.5054 16.5605 20.9526 17.5048 20.2683 18.3365C19.7398 18.9788 18.9282 19.0278 18.3855 18.9399C17.9434 18.8683 17.4764 18.9422 17.0582 19.1828C16.6006 19.446 16.2876 19.8593 16.1435 20.3248C15.9809 20.8498 15.5755 21.5596 14.7605 21.7462C14.0347 21.9124 13.2796 22 12.5048 22C11.7291 22 10.9731 21.9121 10.2465 21.7456C9.43257 21.559 9.02728 20.8505 8.86444 20.3262C8.72007 19.8614 8.40723 19.4488 7.95019 19.1859C7.53251 18.9456 7.06608 18.8716 6.62443 18.9428C6.08231 19.0302 5.27185 18.9808 4.74381 18.3395C4.05703 17.5054 3.50261 16.5581 3.11315 15.5295C2.77884 14.6465 3.27875 13.8485 3.7127 13.4254C4.08621 13.0612 4.31604 12.5562 4.31604 11.9968C4.31604 11.4379 4.08658 10.9332 3.71361 10.5691C3.27992 10.1457 2.78051 9.34742 3.11539 8.46462C3.50427 7.43943 4.05704 6.49518 4.74139 5.66344C5.26995 5.02104 6.08179 4.97212 6.62448 5.06012C7.06668 5.13182 7.53382 5.0579 7.95209 4.81731C8.4097 4.55407 8.72277 4.14069 8.86689 3.67517C9.02944 3.15011 9.4349 2.44019 10.25 2.25362ZM12.5048 3.53846C11.8468 3.53846 11.2072 3.61283 10.5936 3.75326C10.5756 3.75738 10.5402 3.77029 10.4893 3.83055C10.4345 3.89533 10.3783 3.9975 10.3373 4.12996C10.0825 4.95273 9.52649 5.6867 8.7198 6.15073C7.98353 6.57425 7.15643 6.70495 6.378 6.57872C6.24247 6.55675 6.12706 6.56169 6.04543 6.58177C5.96944 6.60046 5.94203 6.62625 5.93016 6.64067C5.35048 7.3452 4.88308 8.14404 4.55457 9.01006C4.5474 9.02896 4.5376 9.06862 4.56908 9.1533C4.60326 9.24526 4.67709 9.35915 4.78906 9.46847C5.44577 10.1096 5.8552 11.006 5.8552 11.9968C5.8552 12.9884 5.4451 13.8855 4.78746 14.5267C4.67542 14.6359 4.60152 14.7498 4.56728 14.8417C4.53575 14.9264 4.54552 14.966 4.55268 14.985C4.88167 15.8539 5.35046 16.6553 5.93221 17.3618C5.94406 17.3762 5.97146 17.402 6.04732 17.4207C6.1288 17.4407 6.24399 17.4458 6.37935 17.4239C7.15683 17.2986 7.98266 17.4295 8.71791 17.8525C9.52357 18.3159 10.0792 19.0486 10.3344 19.8701C10.3755 20.0023 10.4317 20.1042 10.4864 20.1689C10.5373 20.229 10.5726 20.2419 10.5906 20.246C11.2051 20.3869 11.8457 20.4615 12.5048 20.4615C13.1631 20.4615 13.803 20.3871 14.4168 20.2466C14.4348 20.2424 14.4702 20.2295 14.5211 20.1693C14.5759 20.1045 14.6321 20.0024 14.6731 19.8699C14.9278 19.0472 15.4839 18.3133 16.2905 17.8493C17.0266 17.4259 17.8535 17.2952 18.6318 17.4213C18.7673 17.4432 18.8827 17.4383 18.9643 17.4182C19.0403 17.3995 19.0677 17.3737 19.0795 17.3593C19.6592 16.6547 20.1266 15.8559 20.4551 14.9899C20.4623 14.971 20.4721 14.9312 20.4404 14.8464C20.406 14.7542 20.3317 14.6401 20.2192 14.5307C19.5591 13.8892 19.1473 12.9905 19.1473 11.9968C19.1473 11.0039 19.5585 10.1058 20.2176 9.46442C20.33 9.35502 20.4042 9.24086 20.4386 9.14865C20.4702 9.06375 20.4604 9.02403 20.4532 9.0051C20.124 8.13883 19.6557 7.33988 19.0751 6.63541C19.0633 6.62101 19.0359 6.59525 18.9599 6.57661C18.8783 6.55658 18.763 6.55168 18.6276 6.57368C17.8489 6.70016 17.0214 6.56953 16.2848 6.14583C15.4793 5.68246 14.9237 4.94992 14.6684 4.12855C14.6273 3.99622 14.571 3.89418 14.5163 3.8295C14.4653 3.76931 14.4299 3.75643 14.4119 3.75232C13.7996 3.6125 13.1614 3.53846 12.5048 3.53846Z" fill="white"/>
<path fill-rule="evenodd" clip-rule="evenodd" d="M10.25 2.25362C10.9756 2.08756 11.7304 2 12.5048 2C13.2775 2 14.0307 2.08717 14.7547 2.2525C15.5695 2.43856 15.9753 3.14761 16.1384 3.67225C16.2827 4.13696 16.5956 4.54955 17.0525 4.81241C17.471 5.05311 17.9383 5.12699 18.3807 5.05514C18.9231 4.96704 19.7344 5.01564 20.2631 5.65723C20.9485 6.48889 21.5023 7.43328 21.892 8.45875C22.2283 9.34346 21.7264 10.1433 21.2912 10.5668C20.9169 10.9311 20.6865 11.4367 20.6865 11.9968C20.6865 12.5574 20.9173 13.0634 21.2922 13.4277C21.7276 13.8509 22.2299 14.6504 21.8943 15.5353C21.5054 16.5605 20.9526 17.5048 20.2683 18.3365C19.7398 18.9788 18.9282 19.0278 18.3855 18.9399C17.9434 18.8683 17.4764 18.9422 17.0582 19.1828C16.6006 19.446 16.2876 19.8593 16.1435 20.3248C15.9809 20.8498 15.5755 21.5596 14.7605 21.7462C14.0347 21.9124 13.2796 22 12.5048 22C11.7291 22 10.9731 21.9121 10.2465 21.7456C9.43257 21.559 9.02728 20.8505 8.86444 20.3262C8.72007 19.8614 8.40723 19.4488 7.95019 19.1859C7.53251 18.9456 7.06608 18.8716 6.62443 18.9428C6.08231 19.0302 5.27185 18.9808 4.74381 18.3395C4.05703 17.5054 3.50261 16.5581 3.11315 15.5295C2.77884 14.6465 3.27875 13.8485 3.7127 13.4254C4.08621 13.0612 4.31604 12.5562 4.31604 11.9968C4.31604 11.4379 4.08658 10.9332 3.71361 10.5691C3.27992 10.1457 2.78051 9.34742 3.11539 8.46462C3.50427 7.43943 4.05704 6.49518 4.74139 5.66344C5.26995 5.02104 6.08179 4.97212 6.62448 5.06012C7.06668 5.13182 7.53382 5.0579 7.95209 4.81731C8.4097 4.55407 8.72277 4.14069 8.86689 3.67517C9.02944 3.15011 9.4349 2.44019 10.25 2.25362ZM12.5048 3.53846C11.8468 3.53846 11.2072 3.61283 10.5936 3.75326C10.5756 3.75738 10.5402 3.77029 10.4893 3.83055C10.4345 3.89533 10.3783 3.9975 10.3373 4.12996C10.0825 4.95273 9.52649 5.6867 8.7198 6.15073C7.98353 6.57425 7.15643 6.70495 6.378 6.57872C6.24247 6.55675 6.12706 6.56169 6.04543 6.58177C5.96944 6.60046 5.94203 6.62625 5.93016 6.64067C5.35048 7.3452 4.88308 8.14404 4.55457 9.01006C4.5474 9.02896 4.5376 9.06862 4.56908 9.1533C4.60326 9.24526 4.67709 9.35915 4.78906 9.46847C5.44577 10.1096 5.8552 11.006 5.8552 11.9968C5.8552 12.9884 5.4451 13.8855 4.78746 14.5267C4.67542 14.6359 4.60152 14.7498 4.56728 14.8417C4.53575 14.9264 4.54552 14.966 4.55268 14.985C4.88167 15.8539 5.35046 16.6553 5.93221 17.3618C5.94406 17.3762 5.97146 17.402 6.04732 17.4207C6.1288 17.4407 6.24399 17.4458 6.37935 17.4239C7.15683 17.2986 7.98266 17.4295 8.71791 17.8525C9.52357 18.3159 10.0792 19.0486 10.3344 19.8701C10.3755 20.0023 10.4317 20.1042 10.4864 20.1689C10.5373 20.229 10.5726 20.2419 10.5906 20.246C11.2051 20.3869 11.8457 20.4615 12.5048 20.4615C13.1631 20.4615 13.803 20.3871 14.4168 20.2466C14.4348 20.2424 14.4702 20.2295 14.5211 20.1693C14.5759 20.1045 14.6321 20.0024 14.6731 19.8699C14.9278 19.0472 15.4839 18.3133 16.2905 17.8493C17.0266 17.4259 17.8535 17.2952 18.6318 17.4213C18.7673 17.4432 18.8827 17.4383 18.9643 17.4182C19.0403 17.3995 19.0677 17.3737 19.0795 17.3593C19.6592 16.6547 20.1266 15.8559 20.4551 14.9899C20.4623 14.971 20.4721 14.9312 20.4404 14.8464C20.406 14.7542 20.3317 14.6401 20.2192 14.5307C19.5591 13.8892 19.1473 12.9905 19.1473 11.9968C19.1473 11.0039 19.5585 10.1058 20.2176 9.46442C20.33 9.35502 20.4042 9.24086 20.4386 9.14865C20.4702 9.06375 20.4604 9.02403 20.4532 9.0051C20.124 8.13883 19.6557 7.33988 19.0751 6.63541C19.0633 6.62101 19.0359 6.59525 18.9599 6.57661C18.8783 6.55658 18.763 6.55168 18.6276 6.57368C17.8489 6.70016 17.0214 6.56953 16.2848 6.14583C15.4793 5.68246 14.9237 4.94992 14.6684 4.12855C14.6273 3.99622 14.571 3.89418 14.5163 3.8295C14.4653 3.76931 14.4299 3.75643 14.4119 3.75232C13.7996 3.6125 13.1614 3.53846 12.5048 3.53846Z" fill="#B3B3B3"/>
<path fill-rule="evenodd" clip-rule="evenodd" d="M12.5039 10.25C12.9181 10.25 13.2539 10.5858 13.2539 11L13.2539 13C13.2539 13.4142 12.9181 13.75 12.5039 13.75C12.0897 13.75 11.7539 13.4142 11.7539 13L11.7539 11C11.7539 10.5858 12.0897 10.25 12.5039 10.25Z" fill="white"/>
<path fill-rule="evenodd" clip-rule="evenodd" d="M12.5039 10.25C12.9181 10.25 13.2539 10.5858 13.2539 11L13.2539 13C13.2539 13.4142 12.9181 13.75 12.5039 13.75C12.0897 13.75 11.7539 13.4142 11.7539 13L11.7539 11C11.7539 10.5858 12.0897 10.25 12.5039 10.25Z" fill="#B3B3B3"/>
</svg>
