<svg width="24" height="24" viewBox="0 0 24 24" fill="none" xmlns="http://www.w3.org/2000/svg">
<g clip-path="url(#clip0_214_3577)">
<path fill-rule="evenodd" clip-rule="evenodd" d="M10.586 2.1C10.94 1.74648 11.4136 1.53846 11.9134 1.51698C12.4133 1.49551 12.903 1.66214 13.286 1.984L13.414 2.101L15.314 4H18C18.5044 4.00009 18.9901 4.19077 19.3599 4.53384C19.7297 4.8769 19.9562 5.34702 19.994 5.85L20 6V8.686L21.9 10.586C22.2538 10.94 22.462 11.4139 22.4835 11.9139C22.505 12.414 22.3382 12.9039 22.016 13.287L21.899 13.414L19.999 15.314V18C19.9992 18.5046 19.8086 18.9906 19.4655 19.3605C19.1224 19.7305 18.6522 19.9572 18.149 19.995L18 20H15.315L13.415 21.9C13.061 22.2538 12.5871 22.462 12.0871 22.4835C11.587 22.505 11.0971 22.3382 10.714 22.016L10.587 21.9L8.687 20H6C5.49542 20.0002 5.00943 19.8096 4.63945 19.4665C4.26947 19.1234 4.04284 18.6532 4.005 18.15L4 18V15.314L2.1 13.414C1.7462 13.06 1.538 12.5861 1.51652 12.0861C1.49505 11.586 1.66185 11.0961 1.984 10.713L2.1 10.586L4 8.686V6C4.00009 5.4956 4.19077 5.00986 4.53384 4.64009C4.8769 4.27032 5.34702 4.04383 5.85 4.006L6 4H8.686L10.586 2.1ZM12 9C11.2044 9 10.4413 9.31607 9.87868 9.87868C9.31607 10.4413 9 11.2044 9 12C9 12.7957 9.31607 13.5587 9.87868 14.1213C10.4413 14.6839 11.2044 15 12 15C12.7957 15 13.5587 14.6839 14.1213 14.1213C14.6839 13.5587 15 12.7957 15 12C15 11.2044 14.6839 10.4413 14.1213 9.87868C13.5587 9.31607 12.7957 9 12 9Z" fill="#626262"/>
</g>
<defs>
<clipPath id="clip0_214_3577">
<rect width="24" height="24" fill="white"/>
</clipPath>
</defs>
</svg>
