<svg width="16" height="16" viewBox="0 0 16 16" fill="none" xmlns="http://www.w3.org/2000/svg">
<path d="M11.8889 4.86766L8 1.2493L4.11111 4.86766" fill="white"/>
<path d="M11.8889 4.86766L8 1.2493L4.11111 4.86766" fill="#999999"/>
<path d="M11.8889 4.86766L8 1.2493M8 1.2493L4.11111 4.86766M8 1.2493L8 9.93336M1 9.93336L1 10.8018C1 12.0176 1 12.6256 1.25432 13.09C1.47802 13.4985 1.83498 13.8306 2.27402 14.0388C2.77315 14.2754 3.42654 14.2754 4.73333 14.2754L11.2667 14.2754C12.5735 14.2754 13.2269 14.2754 13.726 14.0388C14.165 13.8306 14.522 13.4985 14.7457 13.09C15 12.6256 15 12.0176 15 10.8018L15 9.93336" stroke="white" stroke-width="2" stroke-linecap="round" stroke-linejoin="round"/>
<path d="M11.8889 4.86766L8 1.2493M8 1.2493L4.11111 4.86766M8 1.2493L8 9.93336M1 9.93336L1 10.8018C1 12.0176 1 12.6256 1.25432 13.09C1.47802 13.4985 1.83498 13.8306 2.27402 14.0388C2.77315 14.2754 3.42654 14.2754 4.73333 14.2754L11.2667 14.2754C12.5735 14.2754 13.2269 14.2754 13.726 14.0388C14.165 13.8306 14.522 13.4985 14.7457 13.09C15 12.6256 15 12.0176 15 10.8018L15 9.93336" stroke="black" stroke-opacity="0.05" stroke-width="2" stroke-linecap="round" stroke-linejoin="round"/>
</svg>
