<svg width="29" height="29" viewBox="0 0 29 29" fill="none" xmlns="http://www.w3.org/2000/svg">
<path d="M19.9833 18.3306L23.075 15.2098C23.6972 14.5875 24.1736 13.8778 24.5042 13.0806C24.8347 12.2834 25 11.4473 25 10.5723C25 8.74449 24.3634 7.1936 23.0902 5.9196C21.8169 4.6456 20.2661 4.00899 18.4375 4.00977C17.5625 4.00977 16.7264 4.17504 15.9292 4.5056C15.1319 4.83616 14.4222 5.31254 13.8 5.93477L10.6792 9.02643L19.9833 18.3306ZM10.5625 25.0098C11.4375 25.0098 12.2736 24.8445 13.0708 24.5139C13.8681 24.1834 14.5778 23.707 15.2 23.0848L18.3208 19.9931L9.01667 10.6889L5.925 13.8098C5.30278 14.432 4.82639 15.1417 4.49583 15.9389C4.16528 16.7362 4 17.5723 4 18.4473C4 20.275 4.637 21.8255 5.911 23.0988C7.185 24.372 8.7355 25.009 10.5625 25.0098Z" fill="white"/>
<path d="M19.9833 18.3306L23.075 15.2098C23.6972 14.5875 24.1736 13.8778 24.5042 13.0806C24.8347 12.2834 25 11.4473 25 10.5723C25 8.74449 24.3634 7.1936 23.0902 5.9196C21.8169 4.6456 20.2661 4.00899 18.4375 4.00977C17.5625 4.00977 16.7264 4.17504 15.9292 4.5056C15.1319 4.83616 14.4222 5.31254 13.8 5.93477L10.6792 9.02643L19.9833 18.3306ZM10.5625 25.0098C11.4375 25.0098 12.2736 24.8445 13.0708 24.5139C13.8681 24.1834 14.5778 23.707 15.2 23.0848L18.3208 19.9931L9.01667 10.6889L5.925 13.8098C5.30278 14.432 4.82639 15.1417 4.49583 15.9389C4.16528 16.7362 4 17.5723 4 18.4473C4 20.275 4.637 21.8255 5.911 23.0988C7.185 24.372 8.7355 25.009 10.5625 25.0098Z" fill="black" fill-opacity="0.05"/>
</svg>
