<svg width="24" height="24" viewBox="0 0 24 24" fill="none" xmlns="http://www.w3.org/2000/svg">
<g id="volume-up">
<g id="Vector">
<path fill-rule="evenodd" clip-rule="evenodd" d="M2.09961 12.86C2.09961 15.0921 3.9091 16.9016 6.14121 16.9016C6.70204 16.9016 7.2425 17.1118 7.65592 17.4908L10.5445 20.1386C11.0798 20.6293 11.7797 20.9016 12.5059 20.9016C13.7179 20.9016 14.8634 20.1301 15.1624 18.8589C15.4912 17.461 15.8996 15.1009 15.8996 12.0016C15.8996 8.90224 15.4912 6.54209 15.1624 5.14419C14.8634 3.87299 13.7179 3.10156 12.5059 3.10156C11.7797 3.10156 11.0798 3.3738 10.5445 3.86454L7.65592 6.51237C7.2425 6.89133 6.70204 7.10156 6.14121 7.10156C3.9091 7.10156 2.09961 8.91105 2.09961 11.1432V12.86ZM6.14121 15.1016C4.90321 15.1016 3.89961 14.098 3.89961 12.86L3.89961 11.1432C3.89961 9.90516 4.90321 8.90156 6.14121 8.90156C7.15239 8.90156 8.12683 8.52252 8.87222 7.83924L11.7608 5.19141C11.9641 5.00498 12.23 4.90156 12.5059 4.90156C12.9783 4.90156 13.3236 5.18788 13.4102 5.55628C13.7119 6.839 14.0996 9.06002 14.0996 12.0016C14.0996 14.9431 13.7119 17.1641 13.4102 18.4468C13.3236 18.8152 12.9783 19.1016 12.5059 19.1016C12.23 19.1016 11.9641 18.9981 11.7608 18.8117L8.87222 16.1639C8.12683 15.4806 7.15239 15.1016 6.14121 15.1016Z" fill="white"/>
<path d="M20.6147 6.18802C21.064 5.97545 21.6006 6.16735 21.8131 6.61665C22.5461 8.16576 22.8975 10.0968 22.8996 11.9905C22.9017 13.8843 22.5544 15.8232 21.8128 17.3872C21.5998 17.8363 21.0631 18.0277 20.614 17.8148C20.1649 17.6018 19.9734 17.0651 20.1864 16.6159C20.786 15.3516 21.1015 13.6913 21.0996 11.9925C21.0977 10.2936 20.7786 8.63885 20.1861 7.38647C19.9735 6.93717 20.1654 6.4006 20.6147 6.18802Z" fill="white"/>
<path d="M17.5971 15.8066C17.1525 15.5843 16.9723 15.0437 17.1946 14.5991C18.0679 12.8525 18.0679 11.1507 17.1946 9.40407C16.9723 8.95949 17.1525 8.41888 17.5971 8.19659C18.0417 7.9743 18.5823 8.1545 18.8046 8.59908C19.9313 10.8525 19.9313 13.1507 18.8046 15.4041C18.5823 15.8486 18.0417 16.0288 17.5971 15.8066Z" fill="white"/>
</g>
</g>
</svg>
